<svg width="79" height="79" viewBox="0 0 79 79" fill="none" xmlns="http://www.w3.org/2000/svg">
<g clip-path="url(#clip0_6_73)">
<path d="M39.5001 79.0002C61.3154 79.0002 79.0002 61.3154 79.0002 39.5001C79.0002 17.6848 61.3154 0 39.5001 0C17.6848 0 0 17.6848 0 39.5001C0 61.3154 17.6848 79.0002 39.5001 79.0002Z" fill="#E8E8DF"/>
<path d="M39.9559 30.6358C37.8908 30.6358 36.216 33.2579 36.216 36.4913L34.1011 68.6738C34.1011 71.9071 36.7213 72.3182 39.9559 72.3182C43.1917 72.3182 45.8108 71.9071 45.8108 68.6738L43.6958 36.4913C43.6958 33.2585 42.0197 30.6358 39.9559 30.6358Z" fill="#93793D"/>
<path d="M42.5388 51.9931L58.5945 43.4507L59.1596 44.0026L44.7486 58.4735L42.5388 51.9931Z" fill="#93793D"/>
<path d="M38.5638 52.6194L21.2712 30.3053L20.7598 30.6732L35.1758 58.6576L38.5638 52.6194Z" fill="#93793D"/>
<path d="M33.8654 19.48L33.377 19.8822L36.626 35.3922L41.7081 31.6368L33.8654 19.48Z" fill="#93793D"/>
<path d="M39.7189 32.7414L46.8486 25.6934L47.2297 26.0028L43.5842 35.613L39.7189 32.7414Z" fill="#93793D"/>
<path d="M26.836 27.567C25.0329 28.285 23.8834 27.736 22.8561 28.7302C22.0895 29.4736 22.0715 30.6998 22.8149 31.4664C23.5591 32.233 24.7846 32.2517 25.5525 31.5076C26.9664 30.1349 26.836 27.567 26.836 27.567Z" fill="#B7C133"/>
<path d="M20.4261 19.4693C19.3333 21.0554 18.0809 21.2369 17.7815 22.6235C17.5602 23.6608 18.2199 24.6836 19.2579 24.9063C20.2946 25.129 21.3169 24.4697 21.5382 23.4324C21.9498 21.5183 20.4261 19.4693 20.4261 19.4693Z" fill="#B7C133"/>
<path d="M13.1922 18.159C13.7124 20.0132 13.0507 21.0922 13.9245 22.2094C14.5812 23.0427 15.7894 23.1899 16.6227 22.5356C17.4585 21.88 17.6045 20.6732 16.9501 19.8387C15.7419 18.2968 13.1922 18.159 13.1922 18.159Z" fill="#B7C133"/>
<path d="M17.126 35.3223C18.2823 34.1111 18.2138 33.0108 19.342 32.5099C20.1853 32.135 21.1719 32.5161 21.5481 33.3575C21.9223 34.202 21.5406 35.19 20.6992 35.5649C19.1419 36.2561 17.126 35.3223 17.126 35.3223Z" fill="#B7C133"/>
<path d="M22.6234 24.3255C21.5381 25.4202 20.5246 25.3852 20.0917 26.435C19.7698 27.2215 20.1454 28.1197 20.9325 28.4428C21.7159 28.7658 22.6147 28.391 22.9378 27.6058C23.5334 26.1561 22.6234 24.3255 22.6234 24.3255Z" fill="#B7C133"/>
<path d="M12.3446 30.4443C14.6118 29.1726 15.0085 27.5109 16.9089 27.2795C18.3266 27.1068 19.6208 28.1203 19.7949 29.5405C19.965 30.9619 18.9529 32.2537 17.5327 32.4282C14.9086 32.7446 12.3446 30.4443 12.3446 30.4443Z" fill="#B7C133"/>
<path d="M13.0132 25.5394C14.3255 24.6943 14.5057 23.6833 15.6322 23.4761C16.4787 23.3214 17.2901 23.8808 17.446 24.7248C17.5994 25.5712 17.0406 26.3827 16.1973 26.5385C14.6361 26.8236 13.0132 25.5394 13.0132 25.5394Z" fill="#B7C133"/>
<path d="M62.0412 49.4172C61.3676 47.5991 61.9451 46.4614 60.9752 45.4111C60.2504 44.6265 59.0261 44.5778 58.2414 45.3019C57.4568 46.0274 57.407 47.2517 58.1329 48.0363C59.4683 49.4845 62.0412 49.4172 62.0412 49.4172Z" fill="#B7C133"/>
<path d="M70.2929 43.2111C68.7348 42.0796 68.5851 40.8229 67.2061 40.4886C66.1744 40.2415 65.1353 40.8759 64.8864 41.9063C64.6369 42.9386 65.2725 43.9764 66.3029 44.2246C68.2072 44.6837 70.2929 43.2111 70.2929 43.2111Z" fill="#B7C133"/>
<path d="M71.7829 36.0116C69.9155 36.4856 68.852 35.797 67.7156 36.6433C66.8642 37.2789 66.6897 38.4821 67.3221 39.3327C67.957 40.1847 69.1602 40.3594 70.0122 39.7269C71.5802 38.5563 71.7829 36.0116 71.7829 36.0116Z" fill="#B7C133"/>
<path d="M54.5259 39.5199C55.7084 40.7044 56.8099 40.6638 57.2828 41.8034C57.6358 42.6542 57.2316 43.634 56.3803 43.9882C55.5277 44.3406 54.5504 43.9371 54.196 43.0844C53.5443 41.5115 54.5259 39.5199 54.5259 39.5199Z" fill="#B7C133"/>
<path d="M65.3836 45.2874C64.3177 44.1759 64.3777 43.1631 63.3397 42.7041C62.5601 42.3628 61.6526 42.7159 61.3101 43.4943C60.9677 44.2696 61.3212 45.1784 62.0972 45.5196C63.5319 46.1521 65.3836 45.2874 65.3836 45.2874Z" fill="#B7C133"/>
<path d="M59.5206 34.8596C60.7363 37.1579 62.3886 37.5965 62.5744 39.5006C62.7109 40.9226 61.6656 42.1913 60.2429 42.331C58.8177 42.4657 57.5497 41.421 57.4107 39.9977C57.1593 37.367 59.5206 34.8596 59.5206 34.8596Z" fill="#B7C133"/>
<path d="M64.4075 35.651C65.2215 36.9827 66.2263 37.1879 66.4065 38.3193C66.5405 39.1687 65.9606 39.9677 65.1116 40.1018C64.2627 40.234 63.4656 39.6553 63.3297 38.8083C63.0822 37.2403 64.4075 35.651 64.4075 35.651Z" fill="#B7C133"/>
<path d="M50.3476 36.5355C49.4045 34.8414 49.8019 33.6289 48.6835 32.7396C47.8477 32.0747 46.6296 32.2132 45.9648 33.049C45.3012 33.8854 45.4396 35.1029 46.2742 35.7677C47.8161 36.9952 50.3476 36.5355 50.3476 36.5355Z" fill="#B7C133"/>
<path d="M53.9242 32.4239C52.678 30.1811 53.1994 28.5755 51.7218 27.3973C50.6147 26.5192 49.0043 26.7019 48.1223 27.809C47.2428 28.9149 47.4255 30.5266 48.5327 31.4079C50.5753 33.034 53.9242 32.4239 53.9242 32.4239Z" fill="#B7C133"/>
<path d="M56.1202 24.8333C54.4063 23.9527 54.0675 22.7338 52.653 22.6141C51.5945 22.5275 50.6645 23.3134 50.5772 24.3699C50.488 25.4277 51.2751 26.357 52.3318 26.4444C54.2846 26.6072 56.1202 24.8333 56.1202 24.8333Z" fill="#B7C133"/>
<path d="M58.9369 18.7814C57.1643 19.5342 56.011 19.0166 55.0132 20.0264C54.2704 20.7842 54.2809 22.001 55.0362 22.744C55.7939 23.4893 57.0096 23.4788 57.7537 22.7235C59.1271 21.3274 58.9369 18.7814 58.9369 18.7814Z" fill="#B7C133"/>
<path d="M43.8192 18.6217C44.2527 21.61 45.8886 22.7395 45.3454 24.897C44.9412 26.5087 43.2989 27.4892 41.6849 27.0849C40.0731 26.6757 39.0951 25.0398 39.498 23.4231C40.2522 20.4455 43.8192 18.6217 43.8192 18.6217Z" fill="#B7C133"/>
<path d="M40.6027 17.7043C39.8399 19.546 40.3882 20.7412 39.349 21.7815C38.5769 22.5593 37.3094 22.5611 36.5323 21.7872C35.7552 21.0094 35.7538 19.7507 36.5273 18.9686C37.9643 17.5334 40.6027 17.7043 40.6027 17.7043Z" fill="#B7C133"/>
<path d="M29.1751 16.6788C30.7293 18.7644 32.4265 18.9459 32.9018 20.7997C33.2535 22.1837 32.4147 23.5971 31.0293 23.9532C29.6416 24.3037 28.2288 23.4648 27.8752 22.0789C27.2235 19.518 29.1751 16.6788 29.1751 16.6788Z" fill="#B7C133"/>
<path d="M28.2506 33.0863C30.3863 31.771 30.7043 30.1549 32.5231 29.8555C33.8841 29.6346 35.1715 30.5591 35.3935 31.9207C35.6148 33.2835 34.6894 34.5689 33.3283 34.7911C30.8135 35.1988 28.2506 33.0863 28.2506 33.0863Z" fill="#B7C133"/>
<path d="M53.1089 15.1264C53.6814 16.7561 54.7256 17.2102 54.6582 18.4775C54.6071 19.4287 53.7956 20.1609 52.8457 20.1098C51.8977 20.0574 51.1672 19.2478 51.2146 18.2985C51.3076 16.5434 53.1089 15.1264 53.1089 15.1264Z" fill="#B7C133"/>
<path d="M46.5904 15.2344C48.2401 17.1892 49.9222 17.2695 50.4986 19.0589C50.9265 20.4036 50.1881 21.8432 48.8457 22.2717C47.5035 22.699 46.067 21.9617 45.6348 20.6213C44.8397 18.1426 46.5904 15.2344 46.5904 15.2344Z" fill="#B7C133"/>
<path d="M33.5572 13.2489C34.1309 14.8787 35.1751 15.3327 35.1066 16.5996C35.0567 17.5507 34.2439 18.283 33.2953 18.2332C32.3467 18.1808 31.6144 17.3705 31.6631 16.4219C31.7541 14.6661 33.5572 13.2489 33.5572 13.2489Z" fill="#B7C133"/>
<path d="M28.5525 25.8868C30.4443 25.6386 31.1677 24.6151 32.5274 24.973C33.5384 25.2437 34.1453 26.2858 33.8759 27.302C33.6041 28.3154 32.5631 28.9212 31.5469 28.6517C29.6733 28.1534 28.5525 25.8868 28.5525 25.8868Z" fill="#B7C133"/>
</g>
<defs>
<clipPath id="clip0_6_73">
<rect width="79" height="79" fill="white"/>
</clipPath>
</defs>
</svg>
